# xmcd
#
# Track frame offsets: 
#        150
#        21920
#        36878
#        50323
#        70796
#        90431
#        111568
#        130110
#        153730
#        170287
#
# Disc length: 2494 seconds
#
# Revision: 4
# Processed by: cddbd v1.5.2PL0 Copyright (c) Steve Scherf et al.
# Submitted via: ExactAudioCopy v1.0b4
#
DISCID=7f09bc0a
DTITLE=Putumayo - Putumayo Groove Sampler
DYEAR=2004
DGENRE=Fusion
TTITLE0=Mo' Horizons - Remember Tomorrow
TTITLE1=Aterciopelados - El Estuche
TTITLE2=Miriam Maria - Banguela
TTITLE3=Organic Grooves - Banal Reality
TTITLE4=Hamid Baroudi - Trance Dance
TTITLE5=S-Tone Inc. - Limbe
TTITLE6=Federico Aubele - Postales
TTITLE7=Issa Bagayogo - Saye Mogo Bana
TTITLE8=Nabiha Yasbeck - Astahel
TTITLE9=Abdel Ali Slimani - Moi et Toi
EXTD=
EXTT0=
EXTT1=
EXTT2=
EXTT3=
EXTT4=
EXTT5=
EXTT6=
EXTT7=
EXTT8=
EXTT9=
PLAYORDER=
